<svg viewBox="0 0 152 200" xmlns="http://www.w3.org/2000/svg">
  <path style="color: rgb(0, 0, 0); font-style: normal; font-variant: normal; font-weight: normal; font-stretch: normal; font-size: medium; line-height: normal; font-family: sans-serif; font-feature-settings: normal; text-indent: 0px; text-align: start; text-decoration: none solid rgb(0, 0, 0); letter-spacing: normal; word-spacing: normal; text-transform: none; writing-mode: lr-tb; direction: ltr; text-orientation: mixed; dominant-baseline: auto; baseline-shift: baseline; text-anchor: start; white-space: normal; clip-rule: nonzero; display: inline; overflow: visible; visibility: visible; opacity: 1; isolation: auto; mix-blend-mode: normal; color-interpolation: srgb; color-interpolation-filters: linearrgb; vector-effect: none; fill: rgb(255, 255, 255); fill-opacity: 1; fill-rule: evenodd; stroke-linecap: butt; stroke-linejoin: miter; stroke-miterlimit: 4; stroke-dasharray: none; stroke-dashoffset: 0; stroke-opacity: 1; color-rendering: auto; image-rendering: auto; shape-rendering: auto; text-rendering: auto; paint-order: fill; stroke-width: 9px; stroke: rgb(74, 74, 74);" d="M 3.001 3.226 L 149.074 3.226 L 149.074 197.045 L 3.001 197.045 L 3.001 3.226 Z" id="path3310"></path>
  <text style="fill: rgb(74, 74, 74); font-family: Consolas; font-size: 34px; font-weight: 700; stroke-miterlimit: 10; stroke-width: 0px; white-space: pre;" transform="matrix(0.501615, 0, 0, 0.466941, -42.254837, 101.622368)" x="114.293" y="147.365">KwirthFileman<tspan x="114.29299926757812" dy="1em">​</tspan></text>
  <g transform="matrix(1, 0, 0, 1, -3.396087, 8.773224)">
    <path d="M 121.194 62.442 L 121.194 56.096 C 121.194 54.342 119.111 52.924 116.543 52.924 L 70.035 52.924 L 65.384 46.579 L 42.13 46.579 L 38.46 51.582 C 37.813 52.464 37.479 53.435 37.479 54.422 L 37.479 62.442" stroke-linecap="round" stroke-linejoin="round" style="fill: rgb(255, 255, 255); stroke-width: 2px; stroke: rgb(128, 128, 128);"></path>
    <path d="M 38.217 115.829 L 118.026 115.829 C 120.578 115.829 122.709 113.944 122.941 111.486 L 126.978 68.54 C 127.245 65.75 124.964 63.34 122.063 63.34 L 34.181 63.34 C 31.274 63.34 29 65.75 29.266 68.54 L 33.302 111.486 C 33.534 113.944 35.661 115.829 38.217 115.829 Z" stroke-linecap="round" stroke-linejoin="round" style="fill: rgb(255, 255, 255); stroke-width: 2px; stroke: rgb(131, 131, 131); transform-origin: 78.122px 7.771px;"></path>
  </g>
</svg>