<svg xmlns="http://www.w3.org/2000/svg" width="68.165" height="66.143" viewBox="0 0 18.035 17.5">
  <path d="M 8.986 0.463 C 8.835 0.471 8.687 0.508 8.551 0.573 L 2.612 3.411 C 2.3 3.56 2.074 3.841 1.997 4.175 L 0.532 10.551 C 0.463 10.847 0.519 11.158 0.686 11.413 C 0.706 11.444 0.728 11.475 0.751 11.504 L 4.861 16.616 C 5.077 16.883 5.404 17.039 5.75 17.039 L 12.343 17.038 C 12.688 17.038 13.015 16.882 13.231 16.615 L 17.34 11.502 C 17.556 11.234 17.636 10.883 17.559 10.549 L 16.092 4.175 C 16.015 3.841 15.789 3.56 15.478 3.411 L 9.537 0.572 C 9.366 0.49 9.176 0.452 8.987 0.462" style="fill:#326ce5;fill-opacity:1;stroke:none;stroke-width:0;stroke-miterlimit:4;stroke-dasharray:none;stroke-opacity:1"></path>
  <path d="M-6.852 3.818a1.181 1.172 0 0 0-.452.115l-6.18 2.951a1.181 1.172 0 0 0-.638.795l-1.524 6.63a1.181 1.172 0 0 0 .16.9 1.181 1.172 0 0 0 .067.093l4.276 5.317a1.181 1.172 0 0 0 .924.44h6.858a1.181 1.172 0 0 0 .923-.44L1.837 15.3a1.181 1.172 0 0 0 .228-.99L.54 7.677a1.181 1.172 0 0 0-.64-.795l-6.178-2.95a1.181 1.172 0 0 0-.573-.115m.003.455a1.12 1.11 0 0 1 .542.108l5.853 2.795a1.12 1.11 0 0 1 .606.753l1.446 6.281a1.12 1.11 0 0 1-.216.94l-4.05 5.037a1.12 1.11 0 0 1-.875.417l-6.496.001a1.12 1.11 0 0 1-.875-.417l-4.05-5.037a1.12 1.11 0 0 1-.064-.088 1.12 1.11 0 0 1-.152-.851l1.444-6.281a1.12 1.11 0 0 1 .605-.753l5.853-2.797a1.12 1.11 0 0 1 .429-.108" style="color:#000;font-style:normal;font-variant:normal;font-weight:400;font-stretch:normal;font-size:medium;line-height:normal;font-family:Sans;-inkscape-font-specification:Sans;text-indent:0;text-align:start;text-decoration:none;text-decoration-line:none;letter-spacing:normal;word-spacing:normal;text-transform:none;writing-mode:lr-tb;direction:ltr;baseline-shift:baseline;display:inline;overflow:visible;visibility:visible;fill:#fff;fill-opacity:1;fill-rule:nonzero;stroke:none;stroke-width:0;stroke-miterlimit:4;stroke-dasharray:none;marker:none" transform="translate(15.91 -3.873)scale(1.01489)"></path>
  <path d="M 7.341 4.655 L 13.866 4.655 L 13.866 9.238 L 7.341 9.238 L 7.341 4.655 Z" style="fill:none;fill-rule:evenodd;stroke:#fff;stroke-width:.52914584;stroke-linecap:square;stroke-linejoin:round;stroke-miterlimit:10;stroke-dasharray:1.58743756,1.58743756;stroke-dashoffset:3.66698074;stroke-opacity:1"></path>
  <path d="M 5.802 6.066 L 12.327 6.066 L 12.327 10.65 L 5.802 10.65 L 5.802 6.066 Z" style="fill:#326ce5;fill-opacity:1;fill-rule:evenodd;stroke:#fff;stroke-width:.52914584;stroke-linecap:square;stroke-linejoin:round;stroke-miterlimit:10;stroke-dasharray:1.58743756,1.58743756;stroke-dashoffset:3.87863898;stroke-opacity:1"></path>
  <path d="M 4.264 7.478 L 10.789 7.478 L 10.789 12.061 L 4.264 12.061 L 4.264 7.478 Z" style="fill:none;fill-rule:evenodd;stroke:#fff;stroke-width:.52916664;stroke-linecap:butt;stroke-linejoin:round;stroke-miterlimit:10;stroke-opacity:1"></path>
  <path d="M 4.219 7.495 L 10.744 7.495 L 10.744 12.078 L 4.219 12.078 L 4.219 7.495 Z" style="fill:#fff;fill-rule:evenodd;stroke:none;stroke-width:.26458332;stroke-linecap:square;stroke-miterlimit:10"></path>
  <text x="8.911" y="15.494" style="font-style: normal; font-weight: 400; font-size: 10.5833px; line-height: 6.61458px; font-family: Sans; letter-spacing: 0px; word-spacing: 0px; fill: rgb(255, 255, 255); fill-opacity: 1; stroke: none; stroke-width: 0.265; stroke-linecap: butt; stroke-linejoin: miter; stroke-opacity: 1; white-space: pre;"><tspan x="8.911" y="15.494" style="font-style: normal; font-variant: normal; font-weight: 400; font-stretch: normal; font-size: 2.8px; font-family: Arial; text-align: center; writing-mode: lr-tb; fill: rgb(255, 255, 255); fill-opacity: 1; stroke-width: 0.265; word-spacing: 0px;" text-anchor="middle">group</tspan></text>
</svg>